<?xml version="1.0" encoding="iso-8859-1"?>
<!-- Generator: Adobe Illustrator 19.0.0, SVG Export Plug-In . SVG Version: 6.00 Build 0)  -->
<svg version="1.1" id="Layer_1" xmlns="http://www.w3.org/2000/svg" xmlns:xlink="http://www.w3.org/1999/xlink" x="0px" y="0px"
	 viewBox="0 0 512 512" style="enable-background:new 0 0 512 512;" xml:space="preserve">
<g>
	<g>
		<g>
			<path d="M337.556,189.252l-5.023,29.292c-0.774,4.498,1.039,8.957,4.723,11.628c2.044,1.487,4.46,2.273,6.99,2.273
				c1.922,0,3.836-0.474,5.532-1.366l26.311-13.831l26.297,13.826c1.701,0.897,3.618,1.372,5.544,1.372
				c2.521,0,4.933-0.782,6.988-2.269c3.69-2.682,5.503-7.139,4.729-11.627l-5.024-29.297l21.284-20.748
				c3.267-3.185,4.419-7.858,3.008-12.181c-1.407-4.337-5.083-7.439-9.597-8.094l-29.416-4.275l-13.156-26.66
				c-2.018-4.083-6.102-6.62-10.656-6.62c-4.561,0-8.646,2.54-10.659,6.626l-13.157,26.655l-29.415,4.275
				c-4.506,0.654-8.182,3.752-9.598,8.092c-1.406,4.33-0.255,8.996,3.009,12.185L337.556,189.252z M358.816,159.373
				c2.639-0.383,4.919-2.04,6.1-4.431l11.173-22.637l11.171,22.636c1.178,2.391,3.46,4.048,6.099,4.431l24.984,3.631l-18.077,17.621
				c-1.908,1.861-2.78,4.541-2.33,7.169l4.267,24.881l-22.345-11.748c-1.18-0.62-2.474-0.93-3.769-0.93
				c-1.295,0-2.59,0.31-3.771,0.932l-22.344,11.746l4.266-24.88c0.451-2.628-0.42-5.309-2.329-7.17l-18.079-17.62L358.816,159.373z"
				/>
			<path d="M445.893,429.493c-8.289,0.9-16.654,1.355-24.864,1.355c-54.194,0-106.705-19.349-147.862-54.483
				c-3.402-2.904-8.516-2.499-11.419,0.902c-2.904,3.403-2.5,8.516,0.902,11.42c44.087,37.636,100.334,58.363,158.379,58.363
				c0.631,0,1.264-0.003,1.896-0.008c-41.552,31.591-92.19,48.759-144.94,48.759c-132.226,0-239.8-107.575-239.8-239.801
				c0-127.344,99.772-231.821,225.252-239.364c-54.546,46.16-86.47,114.161-86.47,186.354c0,62.645,23.698,122.196,66.728,167.687
				c3.073,3.25,8.199,3.392,11.451,0.318c3.25-3.075,3.392-8.2,0.318-11.451c-40.173-42.469-62.297-98.068-62.297-156.554
				c0-75.138,37.048-145.42,99.105-188.005c2.878-1.975,4.167-5.574,3.198-8.928c-0.969-3.354-3.98-5.71-7.468-5.845
				C284.296,0.069,281.02,0,277.986,0C209.604,0,145.317,26.629,96.966,74.98c-48.352,48.352-74.98,112.639-74.98,181.019
				s26.628,132.668,74.98,181.019C145.317,485.371,209.605,512,277.986,512c64.888,0,126.787-24.335,174.296-68.523
				c2.555-2.377,3.303-6.122,1.851-9.297C452.683,431.005,449.369,429.118,445.893,429.493z"/>
			<path d="M327.465,325.24c0,18.137,14.757,32.893,32.895,32.893c18.137,0,32.893-14.756,32.893-32.893
				c0-18.138-14.756-32.894-32.893-32.894C342.222,292.346,327.465,307.102,327.465,325.24z M377.053,325.24
				c0,9.205-7.489,16.693-16.693,16.693c-9.206,0-16.695-7.489-16.695-16.693s7.49-16.694,16.695-16.694
				S377.053,316.034,377.053,325.24z"/>
			<path d="M472.699,256.002c-9.561,0-17.313,7.75-17.313,17.314c0,9.563,7.751,17.315,17.313,17.315
				c9.565,0,17.315-7.752,17.315-17.315C490.014,263.751,482.264,256.002,472.699,256.002z"/>
		</g>
	</g>
</g>
<g>
</g>
<g>
</g>
<g>
</g>
<g>
</g>
<g>
</g>
<g>
</g>
<g>
</g>
<g>
</g>
<g>
</g>
<g>
</g>
<g>
</g>
<g>
</g>
<g>
</g>
<g>
</g>
<g>
</g>
</svg>
